name C:\Users\u0101727\Documents\MyRepositories\upper-imu-dc\Results\main_tracking\Case_41\kinematics.mot
datacolumns 10
datarows 18
range 5.00000000 5.17000000
endheader 
time	clav_prot	clav_elev	scapula_abduction	scapula_elevation	scapula_upward_rot	scapula_winging	plane_elv	shoulder_elv	axial_rot	
          5.00000000	        -23.37634940	          2.19678730	         -0.28455868	         -4.07385838	         35.55936003	         -1.93324639	         68.74303541	         46.19109354	        -22.87309424	
          5.01000000	        -23.13294879	          1.99543585	         -0.24611071	         -4.11168453	         34.97599520	         -1.75878006	         68.50839714	         45.79493211	        -22.67345803	
          5.02000000	        -22.86278143	          1.78907914	         -0.14482695	         -4.15274080	         34.40878127	         -1.58681099	         68.26172998	         45.40322687	        -22.48121090	
          5.03000000	        -22.73749477	          1.59206502	         -0.28647328	         -4.19696141	         33.85894450	         -1.41876397	         68.00379438	         45.01579394	        -22.29624790	
          5.04000000	        -22.76657959	          1.39908946	         -0.68447169	         -4.24915057	         33.32869388	         -1.25169660	         67.73340853	         44.63151382	        -22.11880980	
          5.05000000	        -22.93629482	          1.21075685	         -1.31410040	         -4.30833090	         32.81834997	         -1.08632483	         67.45088192	         44.25048919	        -21.94815381	
          5.06000000	        -22.11250592	          0.93853926	         -0.15642511	         -4.37341008	         32.32714145	         -0.92521911	         67.15768587	         43.87250294	        -21.78386185	
          5.07000000	        -23.35085048	          0.82170892	         -2.65064701	         -4.44731999	         31.85630214	         -0.76213625	         66.85134707	         43.49708030	        -21.62485701	
          5.08000000	        -23.27473086	          0.59033594	         -2.78600206	         -4.53101854	         31.40605490	         -0.59583701	         66.53154861	         43.12347314	        -21.46899239	
          5.09000000	        -23.23005507	          0.35666753	         -2.96009137	         -4.62108895	         30.97557980	         -0.43176284	         66.20042883	         42.75060506	        -21.31463846	
          5.10000000	        -23.21210635	          0.12135287	         -3.16564085	         -4.71673901	         30.56395310	         -0.26978051	         65.85787948	         42.37661253	        -21.15885981	
          5.11000000	        -22.22006426	         -0.19258147	         -1.63423060	         -4.81498175	         30.16446837	         -0.11067060	         65.50528766	         42.00064206	        -20.99868200	
          5.12000000	        -23.68640320	         -0.30579608	         -4.46053111	         -4.90894631	         29.76239808	          0.04227954	         65.14598341	         41.62509670	        -20.83025577	
          5.13000000	        -23.54378678	         -0.54782850	         -4.44119708	         -5.00100148	         29.35426083	          0.21039845	         64.77169857	         41.25123316	        -20.65002412	
          5.14000000	        -23.47628344	         -0.77863150	         -4.56266440	         -5.08681496	         28.93571155	          0.37828798	         64.38835063	         40.87736322	        -20.45420992	
          5.15000000	        -23.46952523	         -0.99975883	         -4.79685883	         -5.16717361	         28.50993004	          0.54618308	         63.99570345	         40.50223071	        -20.23944674	
          5.16000000	        -23.49580546	         -1.21338636	         -5.09247292	         -5.24255586	         28.07997233	          0.71401511	         63.59374224	         40.12492979	        -20.00246760	
          5.17000000	        -23.53472562	         -1.42108834	         -5.41168919	         -5.31334519	         27.64826230	          0.88153966	         63.18245143	         39.74485523	        -19.74044864	
